<?xml version="1.0" encoding="utf-8"?>
<!-- Generator: Adobe Illustrator 23.0.5, SVG Export Plug-In . SVG Version: 6.00 Build 0)  -->
<svg version="1.1" id="Calque_1" xmlns="http://www.w3.org/2000/svg" xmlns:xlink="http://www.w3.org/1999/xlink" x="0px" y="0px"
	 viewBox="0 0 411 338.1" style="enable-background:new 0 0 411 338.1;" xml:space="preserve">
<style type="text/css">
	.st0{fill:#F4BE67;stroke:#F9B233;stroke-width:5;stroke-miterlimit:10;}
	.st1{fill:#D15F37;stroke:#D63F00;stroke-width:5;stroke-miterlimit:10;}
	.st2{fill:#F49864;stroke:#F97E33;stroke-width:5;stroke-miterlimit:10;}
</style>
<title>hexa-pix-blue</title>
<path class="st0" d="M187.5,235.8l-0.9-11.9c-2.7-24.7,5.5-51.6,28.3-79c20.6-24.2,32-42,32-62.6c0-23.3-14.6-38.8-43.4-39.3
	c-16.4,0-34.7,5.5-46.2,14.2l-11-28.8c15.1-11,41.1-18.3,65.3-18.3c52.6,0,76.3,32.4,76.3,67.2c0,31.1-17.4,53.5-39.3,79.5
	c-20.1,23.8-27.4,43.9-26,67.2l0.4,11.9H187.5z M177.4,299.8c0-16.9,11.4-28.8,27.4-28.8c16,0,27,11.9,27,28.8
	c0,16-10.5,28.3-27.4,28.3C188.4,328.1,177.4,315.8,177.4,299.8z"/>
<path class="st1" d="M303.1,268.4l1.9-6.5c3.4-13.8,13.2-26.6,30.8-36.7c15.8-8.9,25.4-16.2,29.5-27.2c4.6-12.5-0.2-23.7-15.5-29.6
	c-8.8-3.3-19.7-3.9-27.5-1.5l-0.2-17.6c10.2-2.9,25.6-1.7,38.6,3.1c28.2,10.4,34.5,32.5,27.6,51.1c-6.1,16.7-19.9,25.2-36.8,34.8
	c-15.5,8.8-23.4,18.1-27.2,30.8l-2.1,6.5L303.1,268.4z M285.1,300.7c3.3-9.1,11.8-13.2,20.4-10c8.6,3.2,12.1,11.7,8.8,20.8
	c-3.2,8.6-11.2,13.1-20.3,9.8C285.3,318,281.9,309.2,285.1,300.7z"/>
<path class="st2" d="M88.2,260.9l-2.5-8c-5.7-16.4-4.3-36,7-58.3c10.2-19.7,15.3-33.6,12.1-47.6c-3.6-15.9-16-24.2-35.7-20
	c-11.2,2.6-22.8,9.1-29.2,16.8L28,125.9c8.6-9.8,25.2-18.8,41.7-22.6c35.8-8.2,57,10.3,62.4,33.9c4.8,21.2-3.5,39.1-14.4,60.3
	c-10,19.3-11.9,34.1-7.3,49.8l2.2,8L88.2,260.9z M91.3,306c-2.6-11.5,3.3-21.4,14.2-23.9c10.9-2.5,20.2,3.9,22.8,15.4
	c2.5,10.9-2.8,20.9-14.3,23.6C103.2,323.6,93.8,316.9,91.3,306z"/>
</svg>
