<svg id="Calque_1" data-name="Calque 1" xmlns="http://www.w3.org/2000/svg" viewBox="0 0 411 338.14"><defs><style>.cls-1{fill:#f97e33;}.cls-2{fill:#f9b233;}.cls-3{fill:#d63f00;}.cls-4{fill:#f49864;}.cls-5{fill:#f4be67;}.cls-6{fill:#d15f37;}.cls-7{fill:#fff;}</style></defs><title>hexa-pix-blue</title><rect class="cls-1" y="76.07" width="137" height="262.06"/><rect class="cls-2" x="137" width="137" height="338"/><rect class="cls-3" x="274" y="147.41" width="137" height="190.59"/><rect class="cls-4" x="19" y="97.9" width="100" height="217.93"/><rect class="cls-5" x="153" y="18" width="105" height="303"/><rect class="cls-6" x="292" y="171.36" width="101.97" height="143.64"/><path class="cls-7" d="M627.41,444h-9V384.27l-18.07,6.64v-8.14L626,373.13h1.41Z" transform="translate(-413 -240)"/><path class="cls-7" d="M503,473.44H463.37v-5.52l20.94-23.27a49.82,49.82,0,0,0,6.42-8.57,14.42,14.42,0,0,0,1.76-6.84,10.85,10.85,0,0,0-2.87-7.77,10,10,0,0,0-7.64-3q-5.73,0-8.91,3.26t-3.18,9.08h-7.68q0-8.36,5.38-13.5T482,412.13q8.43,0,13.34,4.42a15.13,15.13,0,0,1,4.9,11.78q0,8.93-11.38,21.27l-16.21,17.57H503Z" transform="translate(-413 -240)"/><path class="cls-7" d="M749.41,477.62h5.23a11.49,11.49,0,0,0,7.75-2.6,8.67,8.67,0,0,0,2.82-6.81q0-9.63-9.59-9.63a10,10,0,0,0-7.21,2.58,9,9,0,0,0-2.69,6.82h-7a14,14,0,0,1,4.76-10.81,17.37,17.37,0,0,1,12.1-4.31q7.75,0,12.15,4.1t4.4,11.4a12,12,0,0,1-2.31,6.92,14,14,0,0,1-6.3,5,13.46,13.46,0,0,1,7,4.74,13.16,13.16,0,0,1,2.46,8.09q0,7.36-4.82,11.7t-12.52,4.32q-7.73,0-12.55-4.17a13.88,13.88,0,0,1-4.84-11h7a9,9,0,0,0,2.82,6.93,10.75,10.75,0,0,0,7.57,2.59q5,0,7.71-2.63t2.67-7.56c0-3.19-1-5.63-2.93-7.34s-4.78-2.58-8.47-2.63h-5.23Z" transform="translate(-413 -240)"/></svg>