<svg id="Calque_1" data-name="Calque 1" xmlns="http://www.w3.org/2000/svg" xmlns:xlink="http://www.w3.org/1999/xlink" viewBox="0 0 194.24 86.57"><defs><style>.cls-1{fill:none;}.cls-2{clip-path:url(#clip-path);}.cls-3{fill:#ff9e18;}.cls-4{fill:#ffb71b;}.cls-5{fill:#e9660a;}.cls-6{clip-path:url(#clip-path-2);}.cls-7{fill:#fff;}.cls-8{fill:#3d4543;}.cls-9{fill:#5f6765;}</style><clipPath id="clip-path" transform="translate(-273.48 -230.22)"><rect class="cls-1" width="841.89" height="595.28"/></clipPath><clipPath id="clip-path-2" transform="translate(-273.48 -230.22)"><path class="cls-1" d="M297.83,243.15a40.87,40.87,0,0,0-4.52,2A32.08,32.08,0,0,0,286.4,273c4,19.87,22.3,31,40.77,27.44a40.77,40.77,0,0,0,14.3-5.79l0-41.4a37.62,37.62,0,0,0-28.68-12.93,41.79,41.79,0,0,0-15,2.81"/></clipPath></defs><title>CY idhn_coul</title><g class="cls-2"><path class="cls-3" d="M341.43,294.7a40.62,40.62,0,0,1-14.26,5.76C308.7,304,290.38,292.89,286.4,273a32.08,32.08,0,0,1,6.91-27.82,41.56,41.56,0,0,0-13,10.53c-7.25,9-9.68,20.67-2.43,31.68.79,1.19,1.6,2.37,2.43,3.52a87.13,87.13,0,0,0,9,10.77c8,8.07,17.16,13.41,26.79,13.41a26.59,26.59,0,0,0,9.62-1.82,38.62,38.62,0,0,0,15.65-11.59" transform="translate(-273.48 -230.22)"/><path class="cls-4" d="M341.41,235a33.73,33.73,0,0,0-28.48-2.83,50.81,50.81,0,0,0-8.68,4,41.2,41.2,0,0,0-10.94,9,40.87,40.87,0,0,1,4.52-2,41.79,41.79,0,0,1,15-2.81,37.62,37.62,0,0,1,28.64,12.88" transform="translate(-273.48 -230.22)"/><path class="cls-5" d="M341.49,253.27a37.62,37.62,0,0,0-28.68-12.93,41.79,41.79,0,0,0-15,2.81,40.87,40.87,0,0,0-4.52,2A32.08,32.08,0,0,0,286.4,273c4,19.87,22.3,31,40.77,27.44a40.86,40.86,0,0,0,14.3-5.78" transform="translate(-273.48 -230.22)"/></g><g class="cls-6"><path class="cls-7" d="M341.52,254.65h-.29L330.63,269,326,254.65h-8.72l6.46,19.92a6.26,6.26,0,0,1-1,5.06l-8.2,11.09h10.17L341.5,268" transform="translate(-273.48 -230.22)"/><path class="cls-7" d="M285.48,272.68a18,18,0,0,0,18,18H308l6.12-8.31H303.51c-5,0-9.66-4.75-9.66-9.73a10.18,10.18,0,0,1,9.66-9.68h10.87l-2.7-8.35h-8.17a18,18,0,0,0-18,18" transform="translate(-273.48 -230.22)"/></g><g class="cls-2"><rect class="cls-8" x="67.76" width="0.42" height="84.86"/><rect class="cls-9" x="78.34" y="24.55" width="2.17" height="19.25"/><path class="cls-9" d="M358,254.77h6.68c6,0,10.23,4.15,10.23,9.57v.05c0,5.42-4.18,9.62-10.23,9.62H358Zm2.17,2V272h4.51c4.87,0,8-3.3,8-7.56v-.06c0-4.26-3.11-7.62-8-7.62Z" transform="translate(-273.48 -230.22)"/><polygon class="cls-9" points="104.35 24.55 106.53 24.55 106.53 33.1 117.64 33.1 117.64 24.55 119.81 24.55 119.81 43.8 117.64 43.8 117.64 35.14 106.53 35.14 106.53 43.8 104.35 43.8 104.35 24.55"/><polygon class="cls-9" points="123.6 24.55 125.64 24.55 137.76 39.98 137.76 24.55 139.88 24.55 139.88 43.8 138.15 43.8 125.72 28.01 125.72 43.8 123.6 43.8 123.6 24.55"/><path class="cls-9" d="M350.92,294.72h1v1h-1ZM351,297h.89V303H351Z" transform="translate(-273.48 -230.22)"/><path class="cls-9" d="M353.57,297h.89v1a2.23,2.23,0,0,1,2-1.16,2.17,2.17,0,0,1,2.28,2.38V303h-.88v-3.47a1.59,1.59,0,0,0-1.65-1.8,1.75,1.75,0,0,0-1.78,1.87V303h-.89Z" transform="translate(-273.48 -230.22)"/><path class="cls-9" d="M359.82,302.19l.45-.63a3.47,3.47,0,0,0,2.05.76c.72,0,1.24-.37,1.24-.95v0c0-.6-.71-.83-1.49-1.05s-2-.58-2-1.68v0a1.81,1.81,0,0,1,2-1.7,4.1,4.1,0,0,1,2.14.65l-.4.67a3.45,3.45,0,0,0-1.76-.57c-.71,0-1.15.36-1.15.86v0c0,.57.73.78,1.53,1s1.91.63,1.91,1.7v0a1.88,1.88,0,0,1-2.12,1.79,4.08,4.08,0,0,1-2.46-.88" transform="translate(-273.48 -230.22)"/><path class="cls-9" d="M365.89,301.37v-3.59h-.83V297h.83v-1.79h.89V297h1.88v.78h-1.88v3.48a.88.88,0,0,0,1,1,1.85,1.85,0,0,0,.86-.21v.76a2.25,2.25,0,0,1-1.07.25,1.51,1.51,0,0,1-1.68-1.68" transform="translate(-273.48 -230.22)"/><path class="cls-9" d="M369.9,294.72h1v1h-1ZM370,297h.89V303H370Z" transform="translate(-273.48 -230.22)"/><path class="cls-9" d="M372.87,301.37v-3.59H372V297h.83v-1.79h.89V297h1.88v.78h-1.88v3.48a.88.88,0,0,0,1,1,1.85,1.85,0,0,0,.86-.21v.76a2.23,2.23,0,0,1-1.07.25,1.52,1.52,0,0,1-1.68-1.68" transform="translate(-273.48 -230.22)"/><path class="cls-9" d="M376.77,300.7V297h.88v3.48a1.59,1.59,0,0,0,1.65,1.79,1.76,1.76,0,0,0,1.78-1.86V297H382V303h-.88v-1a2.26,2.26,0,0,1-2,1.16,2.17,2.17,0,0,1-2.28-2.38" transform="translate(-273.48 -230.22)"/><path class="cls-9" d="M383.91,301.37v-3.59h-.83V297h.83v-1.79h.89V297h1.88v.78H384.8v3.48a.88.88,0,0,0,1,1,1.85,1.85,0,0,0,.86-.21v.76a2.23,2.23,0,0,1-1.07.25,1.52,1.52,0,0,1-1.68-1.68" transform="translate(-273.48 -230.22)"/><path class="cls-9" d="M390.66,300v0a2.91,2.91,0,0,1,2.84-3.09,2.67,2.67,0,0,1,2.28,1.26v-3.59h.89V303h-.89v-1.2a2.67,2.67,0,0,1-2.28,1.33,2.9,2.9,0,0,1-2.84-3.09m5.15,0v0a2.21,2.21,0,0,0-2.15-2.29,2.1,2.1,0,0,0-2.09,2.29v0a2.14,2.14,0,0,0,2.09,2.3,2.21,2.21,0,0,0,2.15-2.3" transform="translate(-273.48 -230.22)"/><path class="cls-9" d="M397.93,300v0a2.93,2.93,0,0,1,2.85-3.09c1.76,0,2.77,1.4,2.77,3.14a2.53,2.53,0,0,1,0,.28h-4.72a2.09,2.09,0,0,0,2.1,2,2.46,2.46,0,0,0,1.87-.84l.56.49a3.08,3.08,0,0,1-2.45,1.12,3,3,0,0,1-3-3.1m4.73-.34a2,2,0,0,0-1.9-2,2.06,2.06,0,0,0-1.94,2Z" transform="translate(-273.48 -230.22)"/><path class="cls-9" d="M404.26,302.19l.45-.63a3.52,3.52,0,0,0,2.06.76c.72,0,1.23-.37,1.23-.95v0c0-.6-.7-.83-1.48-1.05s-2-.58-2-1.68v0a1.8,1.8,0,0,1,2-1.7,4.1,4.1,0,0,1,2.14.65l-.41.67a3.39,3.39,0,0,0-1.76-.57c-.7,0-1.15.36-1.15.86v0c0,.57.74.78,1.53,1s1.91.63,1.91,1.7v0a1.87,1.87,0,0,1-2.11,1.79,4.13,4.13,0,0,1-2.47-.88" transform="translate(-273.48 -230.22)"/><path class="cls-9" d="M413.25,294.55h.88V298a2.24,2.24,0,0,1,2-1.16,2.17,2.17,0,0,1,2.28,2.38V303h-.89v-3.47a1.59,1.59,0,0,0-1.65-1.8,1.75,1.75,0,0,0-1.78,1.87V303h-.88Z" transform="translate(-273.48 -230.22)"/><path class="cls-9" d="M419.89,300.7V297h.89v3.48a1.58,1.58,0,0,0,1.64,1.79,1.76,1.76,0,0,0,1.79-1.86V297h.87V303h-.87v-1a2.29,2.29,0,0,1-2,1.16,2.17,2.17,0,0,1-2.28-2.38" transform="translate(-273.48 -230.22)"/><path class="cls-9" d="M426.72,297h.89v1a2.18,2.18,0,0,1,1.92-1.12,2,2,0,0,1,1.91,1.18,2.37,2.37,0,0,1,2.1-1.18,2.13,2.13,0,0,1,2.2,2.39V303h-.88v-3.47c0-1.15-.58-1.8-1.54-1.8a1.66,1.66,0,0,0-1.64,1.84V303h-.88v-3.5c0-1.11-.59-1.77-1.53-1.77a1.72,1.72,0,0,0-1.66,1.88V303h-.89Z" transform="translate(-273.48 -230.22)"/><path class="cls-9" d="M436.87,301.23v0c0-1.25,1-1.92,2.54-1.92a6.32,6.32,0,0,1,1.83.25v-.2c0-1.07-.66-1.63-1.77-1.63a4.17,4.17,0,0,0-1.81.44l-.26-.72a4.88,4.88,0,0,1,2.16-.5,2.6,2.6,0,0,1,1.92.66,2.36,2.36,0,0,1,.61,1.74V303h-.85v-.9a2.63,2.63,0,0,1-2.15,1,2,2,0,0,1-2.22-1.85m4.38-.46v-.58a6.09,6.09,0,0,0-1.75-.25c-1.11,0-1.74.48-1.74,1.23v0c0,.75.69,1.19,1.5,1.19a1.8,1.8,0,0,0,2-1.61" transform="translate(-273.48 -230.22)"/><path class="cls-9" d="M443.63,297h.88v1a2.25,2.25,0,0,1,2-1.16,2.17,2.17,0,0,1,2.28,2.38V303h-.89v-3.47a1.59,1.59,0,0,0-1.64-1.8,1.75,1.75,0,0,0-1.79,1.87V303h-.88Z" transform="translate(-273.48 -230.22)"/><path class="cls-9" d="M450.39,294.72h1v1h-1Zm.06,2.28h.88V303h-.88Z" transform="translate(-273.48 -230.22)"/><path class="cls-9" d="M453.36,301.37v-3.59h-.83V297h.83v-1.79h.88V297h1.89v.78h-1.89v3.48a.89.89,0,0,0,1,1,1.89,1.89,0,0,0,.87-.21v.76a2.25,2.25,0,0,1-1.07.25,1.51,1.51,0,0,1-1.68-1.68" transform="translate(-273.48 -230.22)"/><path class="cls-9" d="M456.81,300v0a2.94,2.94,0,0,1,2.85-3.1c1.76,0,2.77,1.41,2.77,3.15a2.53,2.53,0,0,1,0,.28H457.7a2.09,2.09,0,0,0,2.1,2,2.48,2.48,0,0,0,1.87-.84l.56.49a3.08,3.08,0,0,1-2.46,1.12,3,3,0,0,1-3-3.1m4.72-.34a2,2,0,0,0-1.89-2,2.06,2.06,0,0,0-1.94,2Zm-1.16-5.21.92.42L460,296.1h-.69Z" transform="translate(-273.48 -230.22)"/><path class="cls-9" d="M463.14,302.19l.45-.63a3.52,3.52,0,0,0,2.06.76c.71,0,1.23-.37,1.23-.95v0c0-.6-.7-.83-1.48-1.05s-2-.58-2-1.68v0a1.8,1.8,0,0,1,2-1.7,4.1,4.1,0,0,1,2.14.65l-.41.67a3.39,3.39,0,0,0-1.76-.57c-.7,0-1.15.36-1.15.86v0c0,.57.74.78,1.53,1s1.91.63,1.91,1.7v0a1.87,1.87,0,0,1-2.11,1.79,4.11,4.11,0,0,1-2.47-.88" transform="translate(-273.48 -230.22)"/><path class="cls-9" d="M350.89,309h.89v1a2.24,2.24,0,0,1,2-1.16,2.17,2.17,0,0,1,2.27,2.38V315h-.88v-3.47a1.59,1.59,0,0,0-1.65-1.8,1.75,1.75,0,0,0-1.78,1.87V315h-.89Z" transform="translate(-273.48 -230.22)"/><path class="cls-9" d="M357.54,312.7V309h.89v3.48a1.58,1.58,0,0,0,1.64,1.79,1.76,1.76,0,0,0,1.78-1.86V309h.88V315h-.88v-1a2.26,2.26,0,0,1-2,1.16,2.17,2.17,0,0,1-2.28-2.38" transform="translate(-273.48 -230.22)"/><path class="cls-9" d="M364.37,309h.89v1a2.18,2.18,0,0,1,1.92-1.12,2,2,0,0,1,1.91,1.18,2.35,2.35,0,0,1,2.09-1.18,2.14,2.14,0,0,1,2.21,2.39V315h-.88v-3.47c0-1.15-.58-1.8-1.55-1.8a1.66,1.66,0,0,0-1.63,1.84V315h-.89v-3.5c0-1.11-.58-1.77-1.53-1.77a1.72,1.72,0,0,0-1.65,1.88V315h-.89Z" transform="translate(-273.48 -230.22)"/><path class="cls-9" d="M374.59,312v0a2.94,2.94,0,0,1,2.86-3.1c1.76,0,2.77,1.41,2.77,3.15a2.53,2.53,0,0,1,0,.28h-4.72a2.09,2.09,0,0,0,2.1,2,2.48,2.48,0,0,0,1.87-.84l.55.49a3,3,0,0,1-2.45,1.12,3,3,0,0,1-3-3.1m4.73-.34a2,2,0,0,0-1.89-2,2.06,2.06,0,0,0-1.94,2Zm-1.16-5.21.92.42-1.31,1.24h-.69Z" transform="translate(-273.48 -230.22)"/><path class="cls-9" d="M381.43,309h.88v1.56a2.55,2.55,0,0,1,2.43-1.66v1h-.07c-1.3,0-2.36.94-2.36,2.73V315h-.88Z" transform="translate(-273.48 -230.22)"/><path class="cls-9" d="M385.76,306.72h1v1h-1Zm.06,2.28h.88V315h-.88Z" transform="translate(-273.48 -230.22)"/><path class="cls-9" d="M393.19,313.75a2.66,2.66,0,0,1-2.28,1.33,2.91,2.91,0,0,1-2.84-3.09v0a2.92,2.92,0,0,1,2.84-3.09,2.67,2.67,0,0,1,2.28,1.26V309h.89v7.79h-.89Zm0-1.77v0a2.21,2.21,0,0,0-2.15-2.29A2.1,2.1,0,0,0,389,312v0a2.15,2.15,0,0,0,2.1,2.3,2.22,2.22,0,0,0,2.15-2.3" transform="translate(-273.48 -230.22)"/><path class="cls-9" d="M395.62,312.7V309h.88v3.48a1.59,1.59,0,0,0,1.65,1.79,1.76,1.76,0,0,0,1.78-1.86V309h.88V315h-.88v-1a2.27,2.27,0,0,1-2,1.16,2.17,2.17,0,0,1-2.27-2.38" transform="translate(-273.48 -230.22)"/><path class="cls-9" d="M402.08,312v0a2.93,2.93,0,0,1,2.85-3.09c1.76,0,2.78,1.4,2.78,3.14a1.27,1.27,0,0,1,0,.28H403a2.07,2.07,0,0,0,2.09,2,2.5,2.5,0,0,0,1.88-.84l.55.49a3.06,3.06,0,0,1-2.45,1.12,3,3,0,0,1-3-3.1m4.73-.34a2,2,0,0,0-1.9-2,2,2,0,0,0-1.93,2Z" transform="translate(-273.48 -230.22)"/><path class="cls-9" d="M408.42,314.19l.44-.63a3.52,3.52,0,0,0,2.06.76c.72,0,1.23-.37,1.23-.95v0c0-.6-.7-.83-1.48-1.05-.93-.26-2-.58-2-1.68v0a1.8,1.8,0,0,1,2-1.7,4.1,4.1,0,0,1,2.14.65l-.4.67a3.45,3.45,0,0,0-1.76-.57c-.71,0-1.16.36-1.16.86v0c0,.57.74.78,1.53,1s1.91.63,1.91,1.7v0a1.87,1.87,0,0,1-2.11,1.79,4.08,4.08,0,0,1-2.46-.88" transform="translate(-273.48 -230.22)"/></g></svg>