<svg id="svg" version="1.1" xmlns="http://www.w3.org/2000/svg" xmlns:xlink="http://www.w3.org/1999/xlink" width="400" height="289.46925021061503" viewBox="0, 0, 400,289.46925021061503"><g id="svgg"><path id="path0" d="M60.824 0.289 C 57.073 0.532,49.893 1.619,49.385 2.021 C 49.225 2.147,48.639 2.342,48.081 2.455 C 46.366 2.802,42.731 3.868,42.578 4.070 C 42.498 4.175,41.912 4.427,41.274 4.629 C 40.128 4.994,35.017 7.290,34.178 7.818 C 33.939 7.968,32.979 8.492,32.045 8.982 C 31.111 9.472,30.154 10.066,29.918 10.302 C 29.682 10.537,29.078 10.943,28.575 11.203 C 23.029 14.069,12.569 24.853,9.108 31.272 C 8.639 32.142,8.096 33.028,7.901 33.240 C 7.706 33.451,7.277 34.233,6.948 34.977 C 6.619 35.721,6.246 36.400,6.118 36.485 C 5.846 36.667,4.345 40.543,4.345 41.063 C 4.345 41.259,4.233 41.419,4.096 41.419 C 3.958 41.419,3.490 42.690,3.054 44.243 C 2.618 45.797,2.152 47.280,2.018 47.540 C 1.885 47.800,1.581 48.974,1.343 50.147 C 0.135 56.117,0.145 55.590,0.145 116.437 L 0.145 174.801 1.086 174.892 C 1.615 174.943,2.028 174.847,2.028 174.674 C 2.028 174.505,2.516 174.362,3.114 174.356 C 8.912 174.301,15.314 169.738,18.242 163.573 C 19.992 159.888,20.028 159.237,19.849 134.251 C 19.718 115.860,19.615 76.076,19.663 62.245 C 19.727 43.761,31.889 24.651,49.095 15.997 C 59.666 10.681,73.279 8.189,82.839 9.822 C 84.033 10.026,86.119 10.382,87.473 10.613 C 108.978 14.277,128.010 33.161,131.426 54.223 C 131.705 55.942,132.031 57.349,132.151 57.349 C 132.456 57.350,132.422 55.707,132.105 55.101 C 131.960 54.824,131.679 53.490,131.481 52.136 C 130.924 48.328,129.028 41.808,127.818 39.537 C 127.649 39.218,127.208 38.240,126.839 37.364 C 126.470 36.488,126.065 35.629,125.940 35.455 C 125.814 35.282,125.302 34.369,124.802 33.428 C 124.302 32.486,123.801 31.651,123.690 31.571 C 123.579 31.492,123.134 30.775,122.702 29.978 C 120.739 26.364,112.575 17.242,109.364 15.076 C 108.999 14.829,107.606 13.797,106.270 12.783 C 104.933 11.768,103.573 10.837,103.248 10.713 C 102.922 10.589,102.502 10.303,102.314 10.077 C 102.127 9.851,101.285 9.350,100.444 8.963 C 99.602 8.577,98.849 8.180,98.769 8.081 C 98.517 7.767,93.182 5.289,91.680 4.788 C 90.887 4.524,90.093 4.186,89.914 4.038 C 89.534 3.723,84.034 2.188,80.604 1.441 C 75.776 0.389,67.101 -0.116,60.824 0.289 M132.435 59.377 C 132.435 59.935,132.495 60.163,132.568 59.884 C 132.640 59.605,132.640 59.149,132.568 58.870 C 132.495 58.592,132.435 58.820,132.435 59.377 M178.711 138.628 C 174.955 138.872,170.580 139.409,170.435 139.644 C 170.348 139.784,169.982 139.899,169.621 139.899 C 168.657 139.899,162.081 141.377,161.912 141.632 C 161.832 141.751,160.985 142.071,160.029 142.342 C 158.106 142.887,157.278 143.246,152.209 145.730 C 141.345 151.052,132.207 159.324,125.625 169.794 C 123.532 173.123,122.933 174.179,122.374 175.525 C 122.076 176.242,121.676 177.024,121.486 177.263 C 121.295 177.502,120.838 178.545,120.470 179.580 C 120.102 180.615,119.715 181.528,119.609 181.608 C 119.416 181.754,118.363 185.074,118.002 186.676 C 117.894 187.154,117.704 187.676,117.580 187.835 C 117.251 188.259,116.159 194.127,115.951 196.594 C 115.852 197.761,115.661 198.784,115.525 198.868 C 115.194 199.073,115.208 211.893,115.540 212.531 C 115.684 212.808,115.949 214.337,116.128 215.930 C 116.486 219.114,117.145 222.559,117.570 223.461 C 117.720 223.780,118.185 225.275,118.603 226.784 C 119.021 228.293,119.456 229.597,119.568 229.681 C 119.681 229.765,120.024 230.550,120.331 231.427 C 121.241 234.026,125.030 241.172,125.865 241.866 C 126.096 242.057,126.285 242.346,126.285 242.506 C 126.285 243.143,130.587 248.713,133.092 251.320 C 133.888 252.149,134.750 253.062,135.007 253.350 C 135.850 254.295,138.694 256.852,139.815 257.672 C 140.418 258.114,141.043 258.618,141.202 258.792 C 141.699 259.337,146.199 262.419,146.497 262.419 C 146.652 262.419,146.939 262.611,147.134 262.846 C 147.329 263.081,148.225 263.635,149.125 264.077 C 150.024 264.519,150.827 264.969,150.909 265.076 C 150.991 265.184,151.903 265.630,152.936 266.068 C 153.970 266.506,154.958 266.971,155.132 267.101 C 155.850 267.638,161.095 269.489,163.794 270.159 C 165.387 270.554,166.951 270.993,167.270 271.134 C 171.612 273.058,193.778 273.058,197.472 271.134 C 197.747 270.990,199.276 270.552,200.869 270.160 C 203.530 269.505,209.362 267.465,209.703 267.070 C 209.783 266.977,210.532 266.588,211.369 266.204 C 213.276 265.328,213.433 265.724,209.694 261.975 L 206.499 258.771 207.160 258.161 C 210.460 255.113,218.877 250.839,224.620 249.295 C 225.894 248.952,226.980 248.648,227.033 248.618 C 227.120 248.570,224.825 246.331,218.159 239.962 C 216.835 238.698,215.596 237.335,215.404 236.934 C 215.213 236.534,214.406 235.783,213.611 235.266 C 212.816 234.748,212.011 234.197,211.822 234.041 C 211.633 233.884,210.720 233.395,209.794 232.953 C 208.868 232.512,208.045 232.067,207.965 231.966 C 207.659 231.575,200.628 229.388,198.627 229.062 C 192.047 227.987,180.382 229.714,177.977 232.119 C 177.721 232.375,177.333 232.585,177.116 232.585 C 176.898 232.585,175.863 233.172,174.816 233.888 C 173.769 234.605,172.830 235.192,172.729 235.192 C 172.583 235.192,170.720 236.674,169.022 238.140 C 168.542 238.555,169.204 238.896,171.760 239.551 C 173.114 239.898,174.352 240.282,174.511 240.404 C 174.671 240.527,175.974 240.988,177.408 241.429 C 178.841 241.870,180.080 242.322,180.159 242.433 C 180.239 242.545,181.081 242.925,182.029 243.277 C 184.407 244.160,191.676 247.835,192.592 248.617 C 192.843 248.831,193.309 249.108,193.628 249.231 C 194.253 249.473,191.792 250.216,190.282 250.241 C 189.876 250.248,189.381 250.416,189.182 250.615 C 188.693 251.104,176.225 251.131,175.207 250.646 C 174.824 250.464,173.143 250.026,171.470 249.674 C 169.797 249.321,167.892 248.791,167.237 248.495 C 166.581 248.199,165.278 247.675,164.340 247.330 C 163.403 246.985,162.440 246.546,162.201 246.354 C 161.962 246.162,161.180 245.711,160.463 245.353 C 159.315 244.778,156.222 242.829,155.829 242.431 C 155.749 242.351,155.163 241.899,154.526 241.427 C 152.343 239.810,148.173 235.725,147.191 234.242 C 146.957 233.888,146.610 233.469,146.421 233.309 C 145.746 232.742,142.603 227.749,141.772 225.923 C 141.518 225.366,141.003 224.258,140.628 223.461 C 139.890 221.897,138.450 217.353,138.450 216.591 C 138.450 216.334,138.332 216.080,138.187 216.027 C 136.817 215.524,136.789 197.765,138.154 195.280 C 138.303 195.008,138.768 193.548,139.187 192.035 C 139.607 190.521,140.054 189.153,140.181 188.993 C 140.308 188.834,140.773 187.791,141.213 186.676 C 141.653 185.561,142.106 184.584,142.219 184.504 C 142.332 184.424,142.658 183.903,142.942 183.345 C 143.563 182.131,145.801 178.746,146.397 178.121 C 147.178 177.302,148.207 175.638,148.394 174.892 C 149.317 171.216,162.229 156.549,168.614 151.923 C 180.864 143.050,191.655 140.108,203.312 142.463 C 206.754 143.159,207.395 143.116,204.715 142.370 C 203.715 142.092,202.766 141.760,202.607 141.634 C 202.448 141.507,200.753 141.066,198.841 140.654 C 196.930 140.241,194.975 139.781,194.497 139.631 C 192.459 138.991,182.683 138.370,178.711 138.628 " stroke="none" fill="#144c6c" fill-rule="evenodd"></path><path id="path1" d="M68.535 10.177 C 48.506 12.748,31.082 25.863,23.748 43.887 C 22.027 48.118,20.275 54.798,20.275 57.130 C 20.275 58.411,20.764 57.815,20.983 56.267 C 21.257 54.329,22.007 51.283,22.463 50.253 C 23.342 48.269,24.330 45.638,24.330 45.280 C 24.330 45.068,24.440 44.895,24.574 44.895 C 24.708 44.895,25.241 44.027,25.758 42.966 C 26.275 41.905,26.887 40.849,27.117 40.619 C 27.347 40.389,27.786 39.709,28.093 39.108 C 28.399 38.507,28.851 37.938,29.097 37.844 C 29.343 37.749,29.544 37.461,29.544 37.204 C 29.544 36.473,37.477 28.751,39.464 27.548 C 40.062 27.186,40.550 26.785,40.550 26.658 C 40.550 26.530,40.778 26.353,41.057 26.265 C 41.672 26.071,43.822 24.843,44.032 24.566 C 44.115 24.456,44.832 24.091,45.625 23.754 C 46.418 23.418,47.541 22.898,48.119 22.600 C 48.698 22.302,50.132 21.773,51.306 21.426 C 52.479 21.078,53.570 20.688,53.729 20.559 C 56.117 18.625,77.425 18.643,78.783 20.581 C 78.863 20.694,79.915 21.063,81.120 21.400 C 83.663 22.112,91.818 26.142,91.818 26.688 C 91.818 26.810,92.244 27.112,92.766 27.360 C 93.288 27.608,94.385 28.396,95.203 29.112 C 96.021 29.827,96.754 30.413,96.832 30.413 C 97.429 30.413,104.263 38.283,104.269 38.977 C 104.271 39.148,104.598 39.571,104.996 39.917 C 105.395 40.263,105.720 40.671,105.720 40.823 C 105.720 40.974,106.161 41.855,106.700 42.780 C 107.239 43.704,107.981 45.177,108.350 46.054 C 108.719 46.930,109.103 47.712,109.203 47.791 C 109.425 47.967,110.152 50.258,110.676 52.426 C 110.887 53.302,111.148 54.084,111.255 54.164 C 112.748 55.274,112.754 75.396,111.262 76.463 C 111.148 76.544,110.686 77.947,110.235 79.580 C 109.784 81.213,109.325 82.549,109.215 82.549 C 109.105 82.549,108.647 83.494,108.198 84.649 C 107.749 85.804,107.286 86.814,107.171 86.894 C 107.055 86.973,106.727 87.495,106.442 88.052 C 105.664 89.575,103.507 92.734,102.683 93.559 C 102.282 93.959,101.955 94.393,101.955 94.523 C 101.955 94.953,95.755 100.975,94.497 101.767 C 93.820 102.193,93.266 102.655,93.266 102.794 C 93.266 102.933,93.038 103.123,92.759 103.217 C 92.037 103.460,90.302 104.494,90.103 104.800 C 90.010 104.942,89.283 105.384,88.487 105.781 C 87.690 106.179,86.517 106.765,85.880 107.084 C 85.243 107.403,84.004 107.910,83.128 108.210 C 82.252 108.511,81.469 108.845,81.389 108.952 C 81.204 109.197,77.088 110.228,75.163 110.512 C 74.366 110.629,73.622 110.870,73.508 111.047 C 73.221 111.494,59.440 111.498,59.150 111.051 C 59.036 110.876,58.325 110.651,57.570 110.550 C 55.635 110.292,51.151 109.167,50.977 108.897 C 50.897 108.773,49.862 108.332,48.676 107.918 C 47.490 107.503,46.447 107.055,46.359 106.920 C 46.271 106.786,45.391 106.316,44.403 105.876 C 43.416 105.436,42.386 104.830,42.114 104.529 C 41.842 104.229,41.476 103.980,41.302 103.977 C 40.235 103.957,33.623 98.198,30.992 94.997 C 30.434 94.318,29.718 93.473,29.399 93.119 C 28.782 92.434,28.239 91.588,27.587 90.297 C 27.365 89.859,27.096 89.500,26.988 89.500 C 26.880 89.499,26.407 88.685,25.936 87.689 C 25.465 86.694,24.911 85.674,24.705 85.422 C 24.498 85.170,23.991 83.997,23.579 82.816 C 23.166 81.634,22.733 80.602,22.616 80.522 C 22.260 80.277,20.854 74.371,20.854 73.117 C 20.854 72.729,20.724 72.411,20.565 72.411 C 20.406 72.411,20.275 71.890,20.275 71.253 C 20.275 70.615,20.145 70.094,19.986 70.094 C 19.662 70.094,19.619 111.514,19.942 112.557 C 20.106 113.088,24.016 116.727,24.423 116.727 C 24.507 116.727,24.968 117.085,25.448 117.524 C 26.770 118.730,28.158 119.785,28.965 120.196 C 29.363 120.399,29.949 120.795,30.268 121.077 C 30.587 121.358,31.564 121.954,32.440 122.401 C 33.316 122.849,34.098 123.304,34.178 123.414 C 34.258 123.524,35.170 123.969,36.206 124.403 C 37.241 124.837,38.160 125.306,38.248 125.445 C 38.335 125.584,39.117 125.942,39.985 126.241 C 40.854 126.539,42.162 127.056,42.893 127.389 C 43.624 127.722,45.318 128.277,46.658 128.621 C 47.998 128.966,49.234 129.359,49.404 129.496 C 49.895 129.890,56.613 130.913,60.040 131.115 C 61.758 131.216,63.232 131.409,63.315 131.544 C 63.513 131.865,69.225 131.863,69.225 131.542 C 69.225 131.407,70.626 131.221,72.339 131.129 C 75.653 130.952,82.886 129.849,83.128 129.484 C 83.208 129.364,83.990 129.106,84.866 128.910 C 86.930 128.449,89.316 127.701,89.500 127.456 C 89.580 127.350,90.688 126.898,91.962 126.452 C 93.237 126.005,94.345 125.548,94.424 125.438 C 94.504 125.327,95.449 124.866,96.524 124.414 C 97.600 123.962,98.479 123.490,98.479 123.366 C 98.479 123.242,99.327 122.741,100.362 122.252 C 101.398 121.762,102.245 121.240,102.245 121.092 C 102.245 120.943,102.512 120.736,102.838 120.633 C 103.164 120.529,104.267 119.804,105.289 119.020 C 106.311 118.237,107.233 117.596,107.336 117.596 C 107.559 117.596,107.883 117.289,112.817 112.403 C 114.888 110.352,116.942 108.238,117.383 107.704 C 119.626 104.987,120.528 103.769,120.938 102.905 C 121.186 102.383,121.498 101.955,121.632 101.955 C 121.765 101.955,122.077 101.529,122.323 101.009 C 122.570 100.489,123.125 99.544,123.556 98.909 C 123.987 98.275,124.590 97.171,124.896 96.458 C 125.202 95.744,125.555 95.092,125.681 95.009 C 125.806 94.927,126.269 93.951,126.710 92.841 C 127.151 91.732,127.680 90.559,127.886 90.235 C 128.092 89.910,128.535 88.650,128.872 87.433 C 129.208 86.216,129.668 84.847,129.892 84.392 C 130.326 83.513,131.789 76.278,131.789 75.013 C 131.789 74.601,131.934 74.119,132.113 73.941 C 132.542 73.512,132.869 60.825,132.451 60.825 C 132.291 60.825,132.015 59.549,131.837 57.988 C 128.418 27.917,99.643 6.184,68.535 10.177 M20.064 59.377 C 20.064 60.094,20.121 60.387,20.190 60.029 C 20.259 59.671,20.259 59.084,20.190 58.726 C 20.121 58.367,20.064 58.660,20.064 59.377 M191.021 142.248 C 180.003 144.207,172.165 148.424,162.821 157.422 C 156.867 163.156,148.878 173.088,148.878 174.758 C 148.878 175.074,149.578 174.552,150.853 173.286 C 153.221 170.935,154.904 169.443,155.187 169.442 C 155.301 169.442,155.786 169.104,156.264 168.691 C 156.741 168.278,157.524 167.741,158.001 167.498 C 158.479 167.256,159.261 166.771,159.739 166.423 C 160.217 166.074,161.325 165.486,162.201 165.117 C 163.077 164.748,163.860 164.351,163.939 164.236 C 164.019 164.120,165.192 163.673,166.546 163.242 C 167.900 162.812,169.256 162.323,169.559 162.156 C 171.726 160.960,182.402 160.125,187.690 160.737 C 191.021 161.123,194.993 161.875,195.221 162.163 C 195.301 162.264,196.539 162.731,197.972 163.201 C 199.406 163.671,200.644 164.140,200.724 164.244 C 200.804 164.347,201.716 164.804,202.752 165.260 C 203.787 165.716,204.718 166.209,204.820 166.357 C 205.023 166.648,207.221 167.891,208.038 168.175 C 208.316 168.272,208.545 168.465,208.545 168.603 C 208.545 168.742,209.089 169.215,209.755 169.656 C 211.559 170.849,217.162 176.594,218.902 179.036 C 219.740 180.211,220.527 181.303,220.652 181.463 C 221.201 182.164,223.577 186.808,224.059 188.125 C 224.351 188.921,224.688 189.642,224.808 189.726 C 225.054 189.899,226.496 195.383,226.500 196.162 C 226.501 196.441,226.612 196.669,226.746 196.669 C 227.135 196.669,227.661 201.830,227.661 205.648 C 227.661 209.466,227.135 214.627,226.746 214.627 C 226.612 214.627,226.501 214.855,226.500 215.134 C 226.496 215.884,225.069 221.356,224.785 221.709 C 224.650 221.876,224.179 222.923,223.737 224.036 C 223.295 225.148,222.767 226.224,222.564 226.427 C 222.362 226.630,222.104 227.088,221.992 227.446 C 221.716 228.322,218.889 232.598,218.131 233.284 C 217.797 233.586,217.524 233.985,217.524 234.170 C 217.524 234.355,217.067 234.910,216.510 235.404 C 215.097 236.654,215.047 236.563,219.477 240.799 C 221.667 242.892,224.418 245.526,225.592 246.652 L 227.725 248.699 224.480 249.634 C 219.204 251.154,213.910 253.701,209.406 256.885 L 206.786 258.738 209.982 261.867 C 211.740 263.589,213.180 265.166,213.181 265.373 C 213.184 265.902,219.844 272.427,220.637 272.678 C 220.996 272.792,221.289 273.003,221.289 273.148 C 221.289 273.293,221.778 273.649,222.375 273.939 C 222.972 274.230,224.048 274.804,224.765 275.215 C 225.482 275.626,226.720 276.199,227.516 276.489 C 228.313 276.779,229.030 277.103,229.109 277.210 C 229.336 277.513,232.178 278.260,235.148 278.798 C 238.892 279.476,247.009 279.256,250.467 278.383 C 254.042 277.480,259.108 274.935,262.788 272.192 C 265.427 270.225,265.666 269.370,263.578 269.370 C 263.285 269.370,263.003 269.257,262.950 269.118 C 262.896 268.979,261.615 268.512,260.101 268.079 C 258.588 267.646,257.204 267.171,257.025 267.023 C 256.846 266.875,255.738 266.418,254.563 266.007 C 253.388 265.597,252.361 265.172,252.281 265.063 C 252.142 264.872,250.876 264.317,248.878 263.569 C 248.360 263.376,247.936 263.117,247.936 262.994 C 247.936 262.872,247.089 262.402,246.054 261.951 C 245.018 261.500,244.171 261.045,244.171 260.940 C 244.171 260.836,243.427 260.376,242.519 259.919 C 241.610 259.462,240.548 258.794,240.159 258.436 C 239.770 258.077,239.307 257.784,239.129 257.784 C 238.952 257.784,238.477 257.491,238.075 257.133 C 236.963 256.142,235.542 255.177,235.195 255.177 C 235.024 255.177,234.807 254.975,234.712 254.729 C 234.617 254.482,234.105 253.984,233.574 253.623 C 233.042 253.262,232.341 252.628,232.015 252.214 L 231.423 251.461 232.724 250.206 C 233.439 249.515,234.026 248.821,234.029 248.664 C 234.031 248.506,234.362 248.050,234.763 247.650 C 235.741 246.675,238.375 243.030,238.691 242.216 C 238.829 241.857,239.044 241.564,239.167 241.563 C 239.291 241.563,239.783 240.748,240.261 239.753 C 240.739 238.758,241.289 237.775,241.484 237.569 C 241.875 237.154,243.012 234.697,243.012 234.265 C 243.012 234.115,243.197 233.807,243.422 233.582 C 243.648 233.357,244.055 232.486,244.328 231.648 C 244.601 230.809,245.073 229.567,245.376 228.887 C 247.155 224.902,249.095 215.213,249.095 210.311 C 249.095 209.358,249.225 208.498,249.385 208.400 C 249.735 208.183,249.776 203.139,249.429 202.924 C 249.295 202.841,249.103 201.302,249.002 199.504 C 248.806 195.994,247.790 189.232,247.382 188.724 C 247.245 188.553,246.851 187.318,246.507 185.978 C 246.162 184.638,245.646 183.008,245.360 182.357 C 245.074 181.706,244.543 180.358,244.180 179.363 C 243.818 178.367,243.407 177.552,243.267 177.552 C 243.127 177.552,243.012 177.353,243.012 177.108 C 243.012 176.650,241.636 173.754,241.296 173.497 C 241.191 173.418,240.719 172.577,240.248 171.628 C 239.777 170.680,239.098 169.585,238.740 169.196 C 238.382 168.807,238.088 168.341,238.088 168.161 C 238.088 167.981,237.730 167.416,237.292 166.905 C 236.854 166.394,235.909 165.171,235.192 164.188 C 234.475 163.205,233.400 161.929,232.802 161.353 C 232.205 160.777,231.716 160.209,231.716 160.091 C 231.716 159.399,221.581 150.615,220.781 150.615 C 220.638 150.615,220.215 150.290,219.841 149.891 C 219.467 149.493,219.050 149.167,218.916 149.167 C 218.781 149.167,218.123 148.809,217.455 148.371 C 216.230 147.569,213.730 146.207,211.586 145.176 C 206.951 142.947,195.924 141.377,191.021 142.248 " stroke="none" fill="#fbb334" fill-rule="evenodd"></path><path id="path2" d="M184.568 88.586 L 184.649 115.188 185.781 117.419 C 186.460 118.756,187.273 119.902,187.809 120.278 C 188.301 120.623,188.834 121.069,188.993 121.269 C 189.568 121.989,192.665 122.520,196.295 122.520 L 199.855 122.520 199.855 118.175 L 199.855 113.831 197.414 113.831 C 194.915 113.831,194.062 113.494,194.062 112.506 C 194.062 112.279,193.932 112.093,193.773 112.093 C 193.582 112.093,193.483 103.548,193.483 87.038 L 193.483 61.984 188.985 61.984 L 184.487 61.984 184.568 88.586 M208.834 66.474 L 208.834 70.963 213.324 70.963 L 217.813 70.963 217.813 66.474 L 217.813 61.984 213.324 61.984 L 208.834 61.984 208.834 66.474 M257.495 66.474 L 257.495 70.963 262.129 70.963 L 266.763 70.963 266.763 66.474 L 266.763 61.984 262.129 61.984 L 257.495 61.984 257.495 66.474 M231.137 72.846 L 231.137 79.073 228.820 79.073 L 226.503 79.073 226.503 83.128 L 226.503 87.183 228.800 87.183 L 231.097 87.183 231.204 101.159 C 231.314 115.654,231.508 117.814,232.783 118.721 C 232.920 118.819,233.266 119.265,233.550 119.711 C 233.834 120.158,234.288 120.606,234.557 120.707 C 234.827 120.808,235.178 121.065,235.338 121.279 C 235.909 122.038,238.715 122.513,242.650 122.516 L 246.488 122.520 246.488 118.175 L 246.488 113.831 244.152 113.831 C 239.926 113.831,240.116 114.514,240.116 99.305 L 240.116 87.183 243.302 87.183 L 246.488 87.183 246.488 83.128 L 246.488 79.073 243.302 79.073 L 240.116 79.073 240.116 72.846 L 240.116 66.618 235.626 66.618 L 231.137 66.618 231.137 72.846 M149.891 78.951 C 148.130 79.337,147.003 79.802,144.388 81.221 C 143.586 81.656,141.057 84.124,141.057 84.472 C 141.057 84.629,140.810 85.022,140.509 85.346 C 139.763 86.146,139.194 87.338,138.734 89.066 C 138.522 89.862,138.243 90.586,138.113 90.674 C 137.055 91.393,137.104 110.237,138.165 110.596 C 138.322 110.649,138.450 110.825,138.450 110.986 C 138.450 113.194,142.681 119.913,144.071 119.913 C 144.161 119.913,144.875 120.307,145.658 120.789 C 149.661 123.252,161.775 123.527,164.518 121.218 C 164.757 121.016,165.401 120.625,165.949 120.347 C 167.226 119.699,169.801 117.127,170.461 115.840 C 170.742 115.292,171.070 114.779,171.191 114.699 C 171.587 114.438,172.645 110.823,172.826 109.115 C 172.923 108.194,173.114 107.372,173.250 107.287 C 173.574 107.087,173.573 94.505,173.249 94.305 C 173.112 94.220,172.931 93.398,172.846 92.477 C 172.668 90.542,171.874 87.640,171.377 87.107 C 171.189 86.905,170.775 86.230,170.456 85.606 C 169.710 84.145,167.261 81.698,165.802 80.956 C 165.176 80.637,164.583 80.266,164.484 80.131 C 163.553 78.857,153.887 78.075,149.891 78.951 M208.834 100.652 L 208.834 122.230 213.324 122.230 L 217.813 122.230 217.813 100.652 L 217.813 79.073 213.324 79.073 L 208.834 79.073 208.834 100.652 M257.495 100.652 L 257.495 122.230 262.129 122.230 L 266.763 122.230 266.763 100.652 L 266.763 79.073 262.129 79.073 L 257.495 79.073 257.495 100.652 M158.760 87.583 C 160.069 88.051,160.938 88.755,162.625 90.714 C 164.625 93.037,164.802 107.771,162.860 110.313 C 161.459 112.148,160.960 112.672,160.613 112.672 C 160.406 112.672,160.169 112.847,160.086 113.061 C 159.661 114.170,154.436 114.581,151.949 113.701 C 147.801 112.234,146.717 109.530,146.717 100.652 C 146.717 92.232,147.822 89.206,151.402 87.818 C 153.220 87.113,157.098 86.989,158.760 87.583 M307.603 208.689 L 307.603 213.179 312.093 213.179 L 316.582 213.179 316.582 208.689 L 316.582 204.200 312.093 204.200 L 307.603 204.200 307.603 208.689 M260.764 237.147 C 260.886 253.302,261.015 255.230,262.045 256.284 C 262.250 256.495,262.423 256.821,262.428 257.008 C 262.455 257.937,263.790 260.007,265.347 261.533 C 267.077 263.229,267.637 263.581,269.542 264.169 C 270.642 264.508,271.769 264.905,272.045 265.050 C 272.687 265.388,278.722 265.398,279.088 265.063 C 279.239 264.924,280.144 264.570,281.100 264.276 C 282.055 263.983,283.098 263.473,283.417 263.143 C 283.736 262.814,284.363 262.313,284.809 262.030 C 285.256 261.747,285.736 261.230,285.877 260.881 C 286.061 260.423,286.138 260.832,286.151 262.346 L 286.169 264.446 290.804 264.446 L 295.438 264.446 295.438 242.867 L 295.438 221.289 290.804 221.289 L 286.169 221.289 286.169 236.024 C 286.169 252.500,286.188 252.331,284.176 254.343 C 280.522 257.997,272.225 256.720,270.776 252.281 C 270.594 251.723,270.301 251.174,270.125 251.061 C 269.900 250.916,269.779 246.460,269.720 236.072 L 269.635 221.289 265.140 221.289 L 260.645 221.289 260.764 237.147 M307.603 242.867 L 307.603 264.446 312.093 264.446 L 316.582 264.446 316.582 242.867 L 316.582 221.289 312.093 221.289 L 307.603 221.289 307.603 242.867 M328.168 225.489 L 328.168 229.689 338.016 229.689 C 343.432 229.689,347.864 229.788,347.864 229.910 C 347.864 230.032,347.236 230.912,346.469 231.865 C 345.702 232.819,344.989 233.827,344.885 234.106 C 344.781 234.385,344.572 234.613,344.421 234.613 C 344.270 234.613,343.850 235.101,343.488 235.699 C 343.126 236.296,342.586 237.046,342.288 237.364 C 341.513 238.193,339.099 241.476,338.652 242.308 C 338.444 242.695,338.156 243.012,338.012 243.012 C 337.868 243.012,337.407 243.599,336.987 244.316 C 336.567 245.033,336.101 245.619,335.952 245.619 C 335.802 245.619,335.587 245.869,335.472 246.174 C 335.358 246.479,334.873 247.211,334.395 247.800 C 333.917 248.389,333.233 249.234,332.875 249.677 C 332.516 250.120,332.223 250.626,332.223 250.802 C 332.223 250.978,332.094 251.122,331.937 251.122 C 331.780 251.122,331.303 251.676,330.877 252.353 C 330.452 253.030,329.863 253.755,329.570 253.963 C 329.277 254.171,329.035 254.497,329.032 254.687 C 329.030 254.877,328.639 255.474,328.163 256.013 C 327.300 256.993,327.299 256.996,327.299 260.720 L 327.299 264.446 343.664 264.446 L 360.029 264.446 360.029 260.246 L 360.029 256.046 349.578 256.046 C 343.829 256.046,339.174 255.949,339.232 255.829 C 339.915 254.427,340.173 254.019,340.376 254.019 C 340.508 254.019,340.962 253.465,341.385 252.788 C 341.809 252.111,342.332 251.453,342.548 251.325 C 342.763 251.198,342.940 250.956,342.940 250.787 C 342.940 250.618,343.592 249.661,344.388 248.660 C 345.185 247.659,345.836 246.702,345.836 246.534 C 345.836 246.365,346.055 246.105,346.323 245.955 C 346.590 245.805,347.079 245.225,347.409 244.666 C 347.739 244.107,348.802 242.625,349.771 241.374 C 350.740 240.123,351.706 238.774,351.917 238.376 C 352.128 237.979,352.540 237.484,352.834 237.275 C 353.127 237.067,353.367 236.734,353.367 236.534 C 353.367 236.334,353.728 235.788,354.169 235.319 C 354.611 234.851,355.360 233.881,355.835 233.164 C 356.310 232.448,356.932 231.602,357.218 231.286 C 358.392 229.986,358.581 229.135,358.581 225.155 L 358.581 221.289 343.374 221.289 L 328.168 221.289 328.168 225.489 " stroke="none" fill="#040404" fill-rule="evenodd"></path><path id="path3" d="M73.932 9.773 C 75.007 9.829,76.767 9.829,77.842 9.773 C 78.917 9.717,78.038 9.672,75.887 9.672 C 73.736 9.672,72.857 9.717,73.932 9.773 M61.839 11.296 C 61.101 11.613,61.863 11.613,62.853 11.296 C 63.435 11.110,63.464 11.063,62.998 11.056 C 62.679 11.051,62.158 11.159,61.839 11.296 M100.217 15.062 C 100.775 15.367,101.361 15.617,101.521 15.617 C 101.680 15.617,101.354 15.367,100.797 15.062 C 100.239 14.756,99.652 14.507,99.493 14.507 C 99.334 14.507,99.660 14.756,100.217 15.062 M110.065 20.661 C 110.065 20.741,110.587 21.219,111.224 21.723 C 111.861 22.228,112.382 22.576,112.382 22.496 C 112.382 22.417,111.861 21.938,111.224 21.434 C 110.587 20.929,110.065 20.581,110.065 20.661 M113.541 23.606 C 114.081 24.164,114.589 24.620,114.668 24.620 C 114.748 24.620,114.371 24.164,113.831 23.606 C 113.290 23.049,112.783 22.592,112.703 22.592 C 112.624 22.592,113.000 23.049,113.541 23.606 M36.485 25.127 L 34.902 26.792 36.568 25.209 C 38.115 23.738,38.366 23.461,38.151 23.461 C 38.106 23.461,37.356 24.211,36.485 25.127 M116.293 26.068 C 117.077 26.865,117.784 27.516,117.864 27.516 C 117.943 27.516,117.367 26.865,116.582 26.068 C 115.798 25.272,115.091 24.620,115.011 24.620 C 114.931 24.620,115.508 25.272,116.293 26.068 M33.725 27.878 L 32.875 28.820 33.816 27.969 C 34.334 27.501,34.757 27.077,34.757 27.028 C 34.757 26.804,34.518 27.001,33.725 27.878 M118.175 28.186 C 118.175 28.236,118.599 28.660,119.117 29.128 L 120.058 29.978 119.207 29.037 C 118.414 28.159,118.175 27.962,118.175 28.186 M19.797 67.777 C 19.797 69.131,19.847 69.685,19.908 69.008 C 19.969 68.331,19.969 67.223,19.908 66.546 C 19.847 65.869,19.797 66.423,19.797 67.777 M161.183 158.798 L 158.001 162.056 161.260 158.875 C 163.052 157.126,164.518 155.659,164.518 155.617 C 164.518 155.408,164.137 155.771,161.183 158.798 M153.349 167.609 C 152.903 168.194,152.686 168.581,152.867 168.469 C 153.237 168.240,154.491 166.546,154.290 166.546 C 154.219 166.546,153.795 167.024,153.349 167.609 M148.510 174.541 C 148.393 174.658,148.298 174.952,148.298 175.197 C 148.298 175.523,148.384 175.555,148.621 175.319 C 148.798 175.141,148.893 174.846,148.832 174.663 C 148.771 174.480,148.626 174.425,148.510 174.541 M220.565 242.143 C 221.511 243.099,222.350 243.881,222.429 243.881 C 222.509 243.881,221.800 243.099,220.854 242.143 C 219.909 241.188,219.070 240.406,218.990 240.406 C 218.910 240.406,219.619 241.188,220.565 242.143 M225.489 246.778 C 226.595 247.893,227.566 248.805,227.646 248.805 C 227.725 248.805,226.885 247.893,225.778 246.778 C 224.672 245.663,223.701 244.750,223.622 244.750 C 223.542 244.750,224.382 245.663,225.489 246.778 M208.244 257.515 L 207.241 258.405 208.327 257.626 C 209.287 256.937,209.599 256.626,209.330 256.626 C 209.284 256.626,208.795 257.026,208.244 257.515 M207.676 259.957 C 208.216 260.514,208.723 260.970,208.803 260.970 C 208.883 260.970,208.506 260.514,207.965 259.957 C 207.425 259.399,206.917 258.943,206.838 258.943 C 206.758 258.943,207.135 259.399,207.676 259.957 " stroke="none" fill="#8e7c64" fill-rule="evenodd"></path><path id="path4" d="M74.953 9.481 C 75.635 9.542,76.677 9.541,77.271 9.479 C 77.864 9.417,77.306 9.367,76.032 9.368 C 74.757 9.369,74.272 9.420,74.953 9.481 M70.604 9.763 C 70.965 9.832,71.486 9.830,71.763 9.757 C 72.040 9.685,71.745 9.628,71.108 9.631 C 70.471 9.635,70.244 9.694,70.604 9.763 M80.159 9.763 C 80.518 9.832,81.104 9.832,81.463 9.763 C 81.821 9.694,81.528 9.637,80.811 9.637 C 80.094 9.637,79.801 9.694,80.159 9.763 M19.799 60.391 C 19.798 61.825,19.847 62.448,19.908 61.776 C 19.968 61.103,19.969 59.930,19.909 59.169 C 19.849 58.407,19.800 58.957,19.799 60.391 M19.544 89.211 C 19.544 101.875,19.580 107.056,19.623 100.724 C 19.667 94.392,19.667 84.030,19.623 77.697 C 19.580 71.365,19.544 76.546,19.544 89.211 M194.577 141.849 C 195.258 141.910,196.301 141.909,196.894 141.847 C 197.487 141.785,196.930 141.735,195.655 141.736 C 194.381 141.737,193.896 141.788,194.577 141.849 M204.514 142.899 C 204.580 142.956,205.025 143.091,205.503 143.198 C 206.138 143.340,206.255 143.313,205.938 143.098 C 205.547 142.833,204.223 142.648,204.514 142.899 M161.043 158.581 C 159.856 159.776,158.950 160.753,159.030 160.753 C 159.109 160.753,160.146 159.776,161.332 158.581 C 162.519 157.386,163.425 156.408,163.345 156.408 C 163.266 156.408,162.230 157.386,161.043 158.581 M217.379 239.247 C 218.001 239.884,218.575 240.406,218.655 240.406 C 218.735 240.406,218.291 239.884,217.668 239.247 C 217.046 238.610,216.472 238.088,216.392 238.088 C 216.313 238.088,216.756 238.610,217.379 239.247 M224.185 245.764 C 225.212 246.799,226.117 247.647,226.196 247.647 C 226.276 247.647,225.501 246.799,224.475 245.764 C 223.449 244.728,222.544 243.881,222.464 243.881 C 222.385 243.881,223.159 244.728,224.185 245.764 M210.717 262.998 C 211.823 264.113,212.794 265.025,212.874 265.025 C 212.953 265.025,212.113 264.113,211.007 262.998 C 209.900 261.883,208.929 260.970,208.850 260.970 C 208.770 260.970,209.610 261.883,210.717 262.998 " stroke="none" fill="#60676c" fill-rule="evenodd"></path></g></svg>