<svg id="Calque_1" data-name="Calque 1" xmlns="http://www.w3.org/2000/svg" viewBox="0 0 255.92 198.49"><defs><style>.cls-1{fill:#fff;}</style></defs><path class="cls-1" d="M388.2,575.89a10.28,10.28,0,0,1-4.29-4.53,16,16,0,0,1-1.48-7.16v-5a15.74,15.74,0,0,1,1.48-7.08,10.27,10.27,0,0,1,4.29-4.48,15.65,15.65,0,0,1,13.54,0,10.21,10.21,0,0,1,4.29,4.48,15.61,15.61,0,0,1,1.48,7.08v5a15.61,15.61,0,0,1-1.48,7.1,10.26,10.26,0,0,1-4.29,4.5,15.56,15.56,0,0,1-13.54,0Zm11.62-6.09a8.13,8.13,0,0,0,1.71-5.51v-5a8,8,0,0,0-1.71-5.48,7.06,7.06,0,0,0-9.7,0,8,8,0,0,0-1.71,5.48v5a8.13,8.13,0,0,0,1.71,5.51,7,7,0,0,0,9.7,0Z" transform="translate(-284.6 -490.27)"/><path class="cls-1" d="M422,569.15a2.71,2.71,0,0,0,.49,1.72,1.64,1.64,0,0,0,1.36.6h2.81v5.68h-3.51a6.63,6.63,0,0,1-5.26-2.11,8.71,8.71,0,0,1-1.86-5.95V534.41h6Z" transform="translate(-284.6 -490.27)"/><path class="cls-1" d="M433.38,534.41h6v6h-6Zm0,12.18h6V577h-6Z" transform="translate(-284.6 -490.27)"/><path class="cls-1" d="M446.1,546.59h13.71V552H446.1Zm4.84,28.52q-1.71-2-1.71-6V537.75h6v31.4a2.84,2.84,0,0,0,.44,1.72,1.49,1.49,0,0,0,1.29.6h2.87v5.68h-3.46Q452.66,577.15,450.94,575.11Z" transform="translate(-284.6 -490.27)"/><path class="cls-1" d="M468,534.41h6v6h-6Zm0,12.18h6V577h-6Z" transform="translate(-284.6 -490.27)"/><path class="cls-1" d="M436.39,678.52a47.53,47.53,0,1,1-3.09-85.64c-24.61-9.51-42.76,21-43.24,21.78v0a32.57,32.57,0,0,0,34.28,52.74C428.65,671,432,674.8,436.39,678.52Z" transform="translate(-284.6 -490.27)"/><path class="cls-1" d="M461.79,636.45a47.33,47.33,0,0,1-13.21,32.87c-5-4.08-8.77-7.18-11.64-9.51a32.56,32.56,0,1,0-46.88-45.15c.48-.83,18.63-31.29,43.24-21.78A47.55,47.55,0,0,1,461.79,636.45Z" transform="translate(-284.6 -490.27)"/><path class="cls-1" d="M446.44,667.1a36,36,0,0,1-14.63,7.38c-1.1-1.05-2.26-2.09-3.51-3.11A60.85,60.85,0,0,0,405,659.79c16.3-14.37,32.21-1.52,32.21-1.52Z" transform="translate(-284.6 -490.27)"/><path class="cls-1" d="M431.65,674.22a36.13,36.13,0,0,1,14.76-7.13c1.08,1.07,2.22,2.13,3.45,3.17a60.72,60.72,0,0,0,23.14,12c-16.54,14.09-32.24,1-32.24,1Z" transform="translate(-284.6 -490.27)"/><path class="cls-1" d="M378.62,536.43c0,.35,0,.69,0,1s0,.69,0,1,0,.66-.05,1a47,47,0,0,1-80.15,30.19V536.43c0,.35,0,.69,0,1s0,.45,0,.67,0,.53,0,.79a33.27,33.27,0,0,0,30.65,30.66l.79,0,.68,0,1,0,1,0,.67,0,.82,0a33.24,33.24,0,1,0-35.73-34.87,40.12,40.12,0,0,1,80.16-.35c0,.34,0,.68,0,1S378.62,536.08,378.62,536.43Z" transform="translate(-284.6 -490.27)"/><path class="cls-1" d="M378.57,533.28A37.84,37.84,0,0,0,363.22,505a41.15,41.15,0,0,0-24.72-8.15c-21.59,0-39.2,16.31-40.09,36.76,0,.22,0,.44,0,.65s0,.66,0,1V601c0,7.28-6.16,13.18-13.77,13.18V535.26c0-.88,0-1.76.07-2.62,1.39-23,20.78-41.33,44.88-42.32l1,0h2.07l1,0C358,491.32,377.52,510,378.57,533.28Z" transform="translate(-284.6 -490.27)"/><path class="cls-1" d="M476.3,666.17a6.92,6.92,0,0,0,1.63,4.93,5.92,5.92,0,0,0,4.58,1.75,6.26,6.26,0,0,0,4.54-1.56,5.81,5.81,0,0,0,1.61-4.42l.41,6.36a8.8,8.8,0,0,1-3,3.78,8.68,8.68,0,0,1-5.19,1.52,9.63,9.63,0,0,1-7.78-3.24c-1.82-2.15-2.74-5.2-2.74-9.12V647.68h6Zm12.36-18.49h5.95v30.41h-5.95Z" transform="translate(-284.6 -490.27)"/><path class="cls-1" d="M503.69,635.49h6v6h-6Zm0,12.19h6v30.41h-6Z" transform="translate(-284.6 -490.27)"/><path class="cls-1" d="M539.73,652.72l-14.62,19.83h15.41v5.54H517.87v-5.15l15-19.72H518.28v-5.54h21.45Z" transform="translate(-284.6 -490.27)"/></svg>